#N canvas 628 39 860 689 12;
#X text 359 226 Turn computer sound down;
#X text 363 263 dsp on control /;
#X text 368 301 dsp off control .;
#X obj 336 385 osc~ 220;
#X obj 339 481 dac~;
#X obj 336 431 *~ 0.25;
#X obj 203 384 vsl 15 128 0 1 0 0 empty empty empty 0 -9 0 10 #faff00
#000000 #000000 0 1;
#X floatatom 386 347 10 0 0 0 - - - 0;
#X obj 541 322 hsl 128 15 0 1000 0 0 empty empty empty -2 -8 0 10 #fcfcfc
#000000 #000000 0 1;
#X text 187 355 Volume;
#X text 594 286 Frequency;
#X msg 159 268 220;
#X msg 201 269 440;
#X msg 247 269 880;
#X msg 114 268 0;
#X obj 134 211 bng 15 250 50 0 empty empty empty 17 7 0 10 #fcfcfc
#000000 #000000;
#X obj 140 169 metro 1000;
#X obj 141 128 tgl 15 0 empty empty empty 17 7 0 10 #fcfcfc #000000
#000000 0 1;
#X obj 241 208 bng 15 250 50 0 empty empty empty 17 7 0 10 #fcfcfc
#000000 #000000;
#X obj 248 125 tgl 15 0 empty empty empty 17 7 0 10 #fcfcfc #000000
#000000 0 1;
#X obj 351 205 bng 15 250 50 0 empty empty empty 17 7 0 10 #fcfcfc
#000000 #000000;
#X obj 358 122 tgl 15 0 empty empty empty 17 7 0 10 #fcfcfc #000000
#000000 0 1;
#X obj 48 121 bng 15 250 50 0 empty empty empty 17 7 0 10 #fcfcfc #000000
#000000;
#X obj 55 38 tgl 15 0 empty empty empty 17 7 0 10 #fcfcfc #000000 #000000
0 1;
#X obj 247 166 metro 500;
#X floatatom 106 29 5 0 0 0 - - - 0;
#X obj 54 79 metro 10;
#X obj 357 163 metro 250;
#X connect 3 0 5 0;
#X connect 5 0 4 0;
#X connect 5 0 4 1;
#X connect 6 0 5 1;
#X connect 7 0 3 0;
#X connect 8 0 7 0;
#X connect 11 0 3 0;
#X connect 12 0 3 0;
#X connect 13 0 3 0;
#X connect 14 0 3 0;
#X connect 15 0 11 0;
#X connect 16 0 15 0;
#X connect 17 0 16 0;
#X connect 18 0 12 0;
#X connect 19 0 24 0;
#X connect 20 0 13 0;
#X connect 21 0 27 0;
#X connect 22 0 14 0;
#X connect 23 0 26 0;
#X connect 24 0 18 0;
#X connect 25 0 26 1;
#X connect 26 0 22 0;
#X connect 27 0 20 0;
