#N canvas 664 161 1255 701 12;
#X obj 239 177 bng 15 250 50 0 empty empty empty 17 7 0 10 #fcfcfc
#000000 #000000;
#X msg 246 246 1000 3000;
#X obj 383 239 delay 3000;
#X obj 385 302 bng 15 250 50 0 empty empty empty 17 7 0 10 #fcfcfc
#000000 #000000;
#X msg 387 352 0 3000;
#X obj 248 319 line;
#X floatatom 247 381 5 0 0 0 - - - 0;
#X obj 242 478 osc~;
#X obj 245 551 *~ 0.5;
#X obj 261 599 output~;
#X text 66 242 sets frequency at 1000 and it take 3000= 3 sec;
#X text 479 241 delays 3000=3secs till it hits the bang again;
#X text 48 321 send a series of linarly stepped numbers;
#X text 233 135 output a bang message;
#X connect 0 0 1 0;
#X connect 0 0 2 0;
#X connect 1 0 5 0;
#X connect 2 0 3 0;
#X connect 3 0 4 0;
#X connect 4 0 5 0;
#X connect 5 0 6 0;
#X connect 6 0 7 0;
#X connect 7 0 8 0;
#X connect 8 0 9 0;
#X connect 8 0 9 1;
