#N canvas 633 78 652 587 12;
#X msg 123 99 220;
#X floatatom 120 167 5 0 0 0 - - - 0;
#X obj 128 224 osc~;
#X obj 119 45 loadbang;
#X obj 142 462 dac~;
#X obj 135 366 *~ 0.25;
#X obj 250 161 * 2;
#X obj 309 164 * 3;
#X obj 376 160 * 5;
#X obj 442 162 * 7;
#X floatatom 253 230 5 0 0 0 - - - 0;
#X floatatom 369 224 5 0 0 0 - - - 0;
#X floatatom 311 224 5 0 0 0 - - - 0;
#X floatatom 436 223 5 0 0 0 - - - 0;
#X obj 434 264 osc~;
#X obj 373 267 osc~;
#X obj 306 264 osc~;
#X obj 252 268 osc~;
#X obj 243 383 vsl 15 128 0 127 0 0 empty empty empty 0 -9 0 10 #fcfcfc
#000000 #000000 0 1;
#X connect 0 0 1 0;
#X connect 0 0 6 0;
#X connect 0 0 7 0;
#X connect 0 0 8 0;
#X connect 0 0 9 0;
#X connect 1 0 2 0;
#X connect 2 0 5 0;
#X connect 3 0 0 0;
#X connect 5 0 4 1;
#X connect 5 0 4 0;
#X connect 6 0 10 0;
#X connect 7 0 12 0;
#X connect 8 0 11 0;
#X connect 9 0 13 0;
#X connect 10 0 17 0;
#X connect 11 0 15 0;
#X connect 12 0 16 0;
#X connect 13 0 14 0;
#X connect 14 0 5 0;
#X connect 15 0 5 0;
#X connect 16 0 5 0;
#X connect 17 0 5 0;
#X connect 18 0 5 1;
