#N canvas 105 143 736 581 12;
#X obj 175 318 osc~;
#X obj 177 381 *~ 0.5;
#X obj 181 450 dac~;
#X obj 79 325 vsl 15 128 0 1 0 0 empty empty empty 0 -9 0 10 #ff8300
#000000 #000000 0 1;
#X msg 52 190 0;
#X msg 97 191 60;
#X msg 154 189 62;
#X msg 212 189 64;
#X msg 265 189 65;
#X msg 310 190 67;
#X msg 367 188 69;
#X msg 425 188 71;
#X text 100 169 c;
#X text 163 165 d;
#X text 223 165 e;
#X text 274 165 f;
#X text 322 165 g;
#X text 377 166 a;
#X text 438 164 b;
#X text 494 162 c;
#X msg 478 188 72;
#X obj 173 269 mtof;
#X text 229 270 midi to frequency;
#X floatatom 398 306 5 0 0 0 - - - 0;
#X msg 120 120 61;
#X text 123 98 c#;
#X text 185 90 d#;
#X msg 179 115 63;
#X msg 290 105 66;
#X text 296 80 f#;
#X msg 340 110 68;
#X text 346 85 g#;
#X msg 390 107 70;
#X text 396 82 a#;
#X connect 0 0 1 0;
#X connect 1 0 2 0;
#X connect 1 0 2 1;
#X connect 3 0 1 1;
#X connect 4 0 21 0;
#X connect 5 0 21 0;
#X connect 6 0 21 0;
#X connect 7 0 21 0;
#X connect 8 0 21 0;
#X connect 9 0 21 0;
#X connect 10 0 21 0;
#X connect 11 0 21 0;
#X connect 20 0 21 0;
#X connect 21 0 0 0;
#X connect 21 0 23 0;
#X connect 24 0 21 0;
#X connect 27 0 21 0;
#X connect 28 0 21 0;
#X connect 30 0 21 0;
#X connect 32 0 21 0;
